<svg width="14" height="14" viewBox="0 0 14 14" fill="none" xmlns="http://www.w3.org/2000/svg">
<path d="M10.1596 8.13113C9.91794 8.13113 9.72205 8.32699 9.72205 8.56863V10.2764C9.72205 10.6063 9.45373 10.8746 9.12388 10.8746H6.82977V4.04015C6.82977 3.49962 6.56131 3.03464 6.09318 2.76434L2.82074 0.875H9.12388C9.45373 0.875 9.72205 1.14332 9.72205 1.47317V3.42117C9.72205 3.6628 9.91794 3.85867 10.1596 3.85867C10.4012 3.85867 10.5971 3.6628 10.5971 3.42117V1.47317C10.5971 0.660871 9.93618 0 9.12388 0H2.22366C1.41136 0 0.750488 0.660871 0.750488 1.47317V10.7142C0.750488 11.2547 1.01895 11.7197 1.48707 11.99L4.62001 13.7987C4.8541 13.9339 5.10534 14.0015 5.3566 14.0014C5.60783 14.0014 5.85915 13.9339 6.09316 13.7987C6.56128 13.5285 6.82974 13.0635 6.82974 12.523V11.7496H9.12385C9.93618 11.7496 10.597 11.0887 10.597 10.2764V8.56863C10.5971 8.32699 10.4012 8.13113 10.1596 8.13113ZM5.95477 12.523C5.95477 12.7457 5.84857 12.9296 5.65568 13.041C5.46283 13.1523 5.25039 13.1523 5.05754 13.041L1.92457 11.2322C1.73169 11.1209 1.62549 10.9369 1.62549 10.7142V1.47317C1.62549 1.38513 1.6446 1.30145 1.67892 1.22612L5.65568 3.52212C5.84857 3.63347 5.95477 3.81746 5.95477 4.04015V12.523ZM13.1212 6.18417L11.6995 7.60583C11.6141 7.69125 11.5021 7.73399 11.3902 7.73399C11.2782 7.73399 11.1662 7.69125 11.0808 7.60583C10.9099 7.43498 10.9099 7.15797 11.0808 6.98712L11.7556 6.3123H7.73611C7.4945 6.3123 7.29861 6.11644 7.29861 5.8748C7.29861 5.63317 7.4945 5.4373 7.73611 5.4373H11.7556L11.0808 4.76249C10.9099 4.59164 10.9099 4.31463 11.0808 4.14378C11.2517 3.97291 11.5287 3.97291 11.6995 4.14378L13.1212 5.56544C13.292 5.73631 13.292 6.01333 13.1212 6.18417Z" fill="white"/>
</svg>
